# xmcd
#
# Track frame offsets: 
#        150
#        15999
#        29799
#        45594
#        59821
#        79532
#        93818
#        113668
#        133961
#        147947
#        162995
#        180614
#
# Disc length: 2623 seconds
#
# Revision: 0
# Processed by: cddbd v1.5.2PL0 Copyright (c) Steve Scherf et al.
# Submitted via: ExactAudioCopy v1.3
#
DISCID=9e0a3d0c
DTITLE=Clay Walker - She Won't Be Lonely Long
DYEAR=2010
DGENRE=Country
TTITLE0=She Won't Be Lonely Long
TTITLE1=Like We Never Said Goodbye
TTITLE2=Where Do I Go From You
TTITLE3=Keep Me From Loving You
TTITLE4=Jesse James
TTITLE5=Double Shot Of John Wayne
TTITLE6=Seven Sundays
TTITLE7=All American
TTITLE8=Summertime Song
TTITLE9=Wrong Enough To Know
TTITLE10=People In Planes
TTITLE11=Feels So Right (with Randy Owen)
EXTD=
EXTT0=
EXTT1=
EXTT2=
EXTT3=
EXTT4=
EXTT5=
EXTT6=
EXTT7=
EXTT8=
EXTT9=
EXTT10=
EXTT11=
PLAYORDER=
